<?xml version="1.0" encoding="UTF-8"?>
<!DOCTYPE svg PUBLIC "-//W3C//DTD SVG 1.1//EN" "http://www.w3.org/Graphics/SVG/1.1/DTD/svg11.dtd">
<!-- Creator: CorelDRAW X6 -->
<svg xmlns="http://www.w3.org/2000/svg" xml:space="preserve" width="110.854mm" height="128.003mm" version="1.1" style="shape-rendering:geometricPrecision; text-rendering:geometricPrecision; image-rendering:optimizeQuality; fill-rule:evenodd; clip-rule:evenodd"
viewBox="0 0 8315 9601"
 xmlns:xlink="http://www.w3.org/1999/xlink">
 <defs>
  <style type="text/css">
   <![CDATA[
    .fil0 {fill:#0090EC}
    .fil3 {fill:#00A5FD}
    .fil2 {fill:#2BC0FF}
    .fil1 {fill:#5BC9FF}
    .fil4 {fill:white;fill-rule:nonzero}
   ]]>
  </style>
 </defs>
 <g id="Слой_x0020_1">
  <metadata id="CorelCorpID_0Corel-Layer"/>
  <g id="_833762272">
   <polygon class="fil0" points="4157,4800 0,7201 4157,9601 "/>
   <polygon class="fil0" points="4157,0 6236,1200 8315,2400 8315,4800 8315,7201 6236,8401 4157,9601 "/>
   <polygon class="fil1" points="4157,4800 8315,2400 8315,7201 "/>
   <polygon class="fil1" points="4157,4800 0,2400 0,7201 "/>
   <polygon class="fil2" points="4157,4800 8315,7201 4157,9601 "/>
   <polygon class="fil2" points="4157,4800 4157,0 0,2400 "/>
   <polygon class="fil3" points="4157,1440 5612,2280 7067,3120 7067,4800 7067,6481 5612,7321 4157,8161 2702,7321 1247,6481 1247,4800 1247,3120 2702,2280 "/>
   <path class="fil4" d="M3649 4147c0,154 -45,281 -134,383 -90,102 -215,170 -378,206l0 13c194,24 340,85 437,181 97,97 146,225 146,385 0,233 -82,413 -247,539 -164,126 -398,190 -701,190 -268,0 -494,-43 -679,-131l0 -346c103,51 211,90 326,117 115,28 225,41 331,41 187,0 327,-35 420,-104 93,-69 139,-177 139,-322 0,-129 -51,-224 -154,-285 -103,-60 -264,-91 -483,-91l-210 0 0 -315 213 0c386,0 579,-133 579,-400 0,-104 -34,-184 -101,-240 -67,-56 -167,-84 -298,-84 -91,0 -180,13 -265,39 -85,26 -185,76 -301,151l-190 -271c221,-163 479,-244 772,-244 244,0 434,53 571,157 137,105 205,249 205,433zm2569 1862l-485 0 -1188 -1927 -14 0 8 108c15,205 23,392 23,562l0 1257 -359 0 0 -2418 480 0 1185 1917 10 0c-2,-25 -7,-117 -13,-277 -7,-159 -10,-283 -10,-373l0 -1267 362 0 0 2418z"/>
  </g>
 </g>
</svg>
